<svg width="348" height="348" viewBox="0 0 348 348" fill="none" xmlns="http://www.w3.org/2000/svg">
<path d="M344 180.972C344 90.3783 270.593 16.9717 180 16.9717C89.4056 16.9717 15.999 90.3783 15.999 180.972C15.999 257.856 68.9384 322.406 140.377 340.118V231.091H106.527V180.972H140.377V159.39C140.377 103.564 165.633 77.7175 220.409 77.7175C230.774 77.7175 248.749 79.7511 256.03 81.7847V127.18C252.16 126.786 245.468 126.59 237.072 126.59C210.176 126.59 199.811 136.758 199.811 163.26V180.972H253.406L244.222 231.091H199.876V343.792C281.089 333.952 344 264.809 344 180.972Z" fill="#0866FF"/>
<path d="M244.223 230.198L253.407 180.079H199.812V162.367C199.812 135.865 210.177 125.697 237.073 125.697C245.404 125.697 252.161 125.893 256.031 126.287V80.826C248.684 78.7924 230.775 76.7588 220.41 76.7588C165.634 76.7588 140.378 102.605 140.378 158.431V180.079H106.528V230.198H140.378V339.225C153.039 342.374 166.356 344.08 180.001 344.08C186.757 344.08 193.383 343.686 199.877 342.899V230.198H244.223Z" fill="white"/>
</svg>
